<svg width="10" height="9" viewBox="0 0 10 9" fill="none" xmlns="http://www.w3.org/2000/svg">
<path id="Vector" d="M5 8.5C5.88667 8.49995 6.74821 8.20542 7.44935 7.66268C8.15049 7.11993 8.65152 6.35969 8.87378 5.50133M5 8.5C4.11334 8.49995 3.2518 8.20542 2.55066 7.66268C1.84951 7.11993 1.34848 6.35969 1.12622 5.50133M5 8.5C6.10445 8.5 7 6.70889 7 4.5C7 2.29111 6.10445 0.5 5 0.5M5 8.5C3.89556 8.5 3 6.70889 3 4.5C3 2.29111 3.89556 0.5 5 0.5M5 0.5C5.70944 0.499704 6.40619 0.688159 7.01875 1.04603C7.63132 1.4039 8.13764 1.9183 8.48578 2.53644M5 0.5C4.29056 0.499704 3.59381 0.688159 2.98125 1.04603C2.36869 1.4039 1.86236 1.9183 1.51422 2.53644M8.48578 2.53644C7.51808 3.37464 6.28024 3.83518 5 3.83333C3.66756 3.83333 2.44889 3.34444 1.51422 2.53644M8.48578 2.53644C8.82394 3.13555 9.0011 3.81205 9 4.5C9 4.84578 8.956 5.18133 8.87378 5.50133M8.87378 5.50133C7.68852 6.15839 6.3552 6.50213 5 6.5C3.59467 6.5 2.27422 6.13778 1.12622 5.50133M1.12622 5.50133C1.04211 5.17421 0.999701 4.83776 1 4.5C1 3.78667 1.18667 3.11644 1.51422 2.53644" stroke="#7C3AED" stroke-width="0.5" stroke-linecap="round" stroke-linejoin="round"/>
</svg>
