<svg width="10" height="10" viewBox="0 0 10 10" fill="none" xmlns="http://www.w3.org/2000/svg">
<g id="Frame" clip-path="url(#clip0_305_79)">
<path id="Vector" d="M2.8125 1.25005V2.18755M7.1875 1.25005V2.18755M1.25 7.81255V3.12505C1.25 2.87641 1.34877 2.63795 1.52459 2.46213C1.7004 2.28632 1.93886 2.18755 2.1875 2.18755H7.8125C8.06114 2.18755 8.2996 2.28632 8.47541 2.46213C8.65123 2.63795 8.75 2.87641 8.75 3.12505V7.81255M1.25 7.81255C1.25 8.06119 1.34877 8.29964 1.52459 8.47546C1.7004 8.65127 1.93886 8.75005 2.1875 8.75005H7.8125C8.06114 8.75005 8.2996 8.65127 8.47541 8.47546C8.65123 8.29964 8.75 8.06119 8.75 7.81255M1.25 7.81255V4.68755C1.25 4.43891 1.34877 4.20045 1.52459 4.02463C1.7004 3.84882 1.93886 3.75005 2.1875 3.75005H7.8125C8.06114 3.75005 8.2996 3.84882 8.47541 4.02463C8.65123 4.20045 8.75 4.43891 8.75 4.68755V7.81255M5 5.31255H5.00333V5.31588H5V5.31255ZM5 6.25005H5.00333V6.25338H5V6.25005ZM5 7.18755H5.00333V7.19088H5V7.18755ZM4.0625 6.25005H4.06583V6.25338H4.0625V6.25005ZM4.0625 7.18755H4.06583V7.19088H4.0625V7.18755ZM3.125 6.25005H3.12833V6.25338H3.125V6.25005ZM3.125 7.18755H3.12833V7.19088H3.125V7.18755ZM5.9375 5.31255H5.94083V5.31588H5.9375V5.31255ZM5.9375 6.25005H5.94083V6.25338H5.9375V6.25005ZM5.9375 7.18755H5.94083V7.19088H5.9375V7.18755ZM6.875 5.31255H6.87833V5.31588H6.875V5.31255ZM6.875 6.25005H6.87833V6.25338H6.875V6.25005Z" stroke="#64748B" stroke-width="0.75" stroke-linecap="round" stroke-linejoin="round"/>
</g>
<defs>
<clipPath id="clip0_305_79">
<rect width="10" height="10" fill="white"/>
</clipPath>
</defs>
</svg>
