<svg width="8" height="5" viewBox="0 0 8 5" fill="none" xmlns="http://www.w3.org/2000/svg">
<g id="email-icon">
<path id="Vector" d="M1.15979 0.166656C0.95351 0.166656 0.755679 0.248601 0.609817 0.394462C0.463956 0.540324 0.382011 0.738155 0.382011 0.944434V1.39593L3.66462 3.03743C3.73212 3.07118 3.80655 3.08875 3.88201 3.08875C3.95748 3.08875 4.0319 3.07118 4.0994 3.03743L7.38201 1.39632V0.944434C7.38201 0.738155 7.30007 0.540324 7.15421 0.394462C7.00834 0.248601 6.81051 0.166656 6.60423 0.166656H1.15979Z" fill="#334155"/>
<path id="Vector_2" d="M7.38201 2.04849L4.36034 3.55933C4.21183 3.6336 4.04806 3.67226 3.88201 3.67226C3.71596 3.67226 3.55219 3.6336 3.40368 3.55933L0.382011 2.04849V4.05555C0.382011 4.26183 0.463956 4.45966 0.609817 4.60552C0.755679 4.75138 0.95351 4.83333 1.15979 4.83333H6.60423C6.81051 4.83333 7.00834 4.75138 7.15421 4.60552C7.30007 4.45966 7.38201 4.26183 7.38201 4.05555V2.04849Z" fill="#334155"/>
</g>
</svg>
