<svg width="8" height="9" viewBox="0 0 8 9" fill="none" xmlns="http://www.w3.org/2000/svg">
<g id="Frame" clip-path="url(#clip0_305_252)">
<path id="Vector" d="M6.81567 7.31733H5.63101V5.461C5.63101 5.01833 5.62201 4.44867 5.01367 4.44867C4.39601 4.44867 4.30167 4.93033 4.30167 5.42833V7.31733H3.11701V3.5H4.25501V4.02033H4.27034C4.42934 3.72033 4.81601 3.40367 5.39367 3.40367C6.59401 3.40367 6.81601 4.19367 6.81601 5.222V7.31733H6.81567ZM1.77901 2.97767C1.39767 2.97767 1.09134 2.669 1.09134 2.28933C1.09134 1.91 1.39801 1.60167 1.77901 1.60167C2.15901 1.60167 2.46701 1.91 2.46701 2.28933C2.46701 2.669 2.15867 2.97767 1.77901 2.97767ZM2.37301 7.31733H1.18501V3.5H2.37301V7.31733ZM7.40834 0.5H0.590341C0.264008 0.5 7.62939e-06 0.758 7.62939e-06 1.07633V7.92367C7.62939e-06 8.24233 0.264008 8.5 0.590341 8.5H7.40734C7.73334 8.5 8.00001 8.24233 8.00001 7.92367V1.07633C8.00001 0.758 7.73334 0.5 7.40734 0.5H7.40834Z" fill="#0A66C2"/>
</g>
<defs>
<clipPath id="clip0_305_252">
<rect width="8" height="8" fill="white" transform="translate(7.62939e-06 0.5)"/>
</clipPath>
</defs>
</svg>
