<svg width="7" height="7" viewBox="0 0 7 7" fill="none" xmlns="http://www.w3.org/2000/svg">
<path id="map-icon" fill-rule="evenodd" clip-rule="evenodd" d="M3.37237 6.97158L3.3736 6.972C3.45471 7.0074 3.5 6.99917 3.5 6.99917C3.5 6.99917 3.54529 7.0074 3.62681 6.972L3.62763 6.97158L3.6301 6.97035L3.63751 6.96706C3.67659 6.9489 3.71517 6.92968 3.7532 6.90942C3.82978 6.86989 3.93683 6.8106 4.06487 6.73114C4.32014 6.57304 4.6598 6.33343 5.00112 6.00446C5.68292 5.34737 6.38201 4.32013 6.38201 2.88201C6.38201 2.50354 6.30747 2.12877 6.16263 1.77911C6.0178 1.42945 5.80551 1.11174 5.53789 0.844121C5.27027 0.576502 4.95256 0.364215 4.6029 0.21938C4.25324 0.0745454 3.87847 0 3.5 0C3.12153 0 2.74676 0.0745454 2.3971 0.21938C2.04744 0.364215 1.72973 0.576502 1.46211 0.844121C1.19449 1.11174 0.982203 1.42945 0.837369 1.77911C0.692534 2.12877 0.617989 2.50354 0.617989 2.88201C0.617989 4.31972 1.31708 5.34737 1.9993 6.00446C2.28492 6.2788 2.59859 6.52237 2.93513 6.73114C3.06547 6.81208 3.19957 6.88682 3.33696 6.95512L3.36249 6.96706L3.3699 6.97035L3.37237 6.97158ZM3.5 3.80837C3.74569 3.80837 3.98131 3.71077 4.15504 3.53705C4.32876 3.36332 4.42636 3.1277 4.42636 2.88201C4.42636 2.63632 4.32876 2.4007 4.15504 2.22698C3.98131 2.05325 3.74569 1.95565 3.5 1.95565C3.25431 1.95565 3.01869 2.05325 2.84496 2.22698C2.67124 2.4007 2.57364 2.63632 2.57364 2.88201C2.57364 3.1277 2.67124 3.36332 2.84496 3.53705C3.01869 3.71077 3.25431 3.80837 3.5 3.80837Z" fill="#334155"/>
</svg>
